Coordinates
version=1
nRows=6
nColumns=63
inDegrees=yes

Units are S.I. units (second, meters, Newtons, ...)
If the header above contains a line with 'inDegrees', this indicates whether rotational values are in degrees (yes) or radians (no).

endheader
time	pelvis_tilt	pelvis_list	pelvis_rotation	pelvis_tx	pelvis_ty	pelvis_tz	hip_flexion_r	hip_adduction_r	hip_rotation_r	knee_angle_r	knee_angle_r_beta	ankle_angle_r	subtalar_angle_r	mtp_angle_r	hip_flexion_l	hip_adduction_l	hip_rotation_l	knee_angle_l	knee_angle_l_beta	ankle_angle_l	subtalar_angle_l	mtp_angle_l	L5_S1_Flex_Ext	L5_S1_Lat_Bending	L5_S1_axial_rotation	L4_L5_Flex_Ext	L4_L5_Lat_Bending	L4_L5_axial_rotation	L3_L4_Flex_Ext	L3_L4_Lat_Bending	L3_L4_axial_rotation	L2_L3_Flex_Ext	L2_L3_Lat_Bending	L2_L3_axial_rotation	L1_L2_Flex_Ext	L1_L2_Lat_Bending	L1_L2_axial_rotation	L1_T12_Flex_Ext	L1_T12_Lat_Bending	L1_T12_axial_rotation	Abs_r3	Abs_r2	Abs_r1	Abs_t1	Abs_t2	neck_flexion	neck_bending	neck_rotation	arm_flex_r	arm_add_r	arm_rot_r	elbow_flex_r	pro_sup_r	wrist_flex_r	wrist_dev_r	arm_flex_l	arm_add_l	arm_rot_l	elbow_flex_l	pro_sup_l	wrist_flex_l	wrist_dev_l
0.000000	5.494108	-3.090038	91.218792	0.323392	0.999061	0.416491	-2.546377	0.155989	12.439102	0.957085	0.016704	23.841483	-15.103626	0.000000	-2.594343	-0.462130	9.734639	0.658831	0.011499	26.592419	-14.452216	0.000000	-0.130924	-0.053321	0.414176	-0.243140	-0.070917	0.440062	-0.215096	-0.129645	0.440062	-0.149633	-0.129645	0.362404	-0.121576	-0.108732	0.336518	-0.074810	-0.082594	0.310632	-0.935180	-0.603178	2.303523	0.000000	0.000000	26.937794	0.607207	-9.299296	-17.277094	-22.305959	29.947793	49.559732	71.634306	-7.242803	-0.437635	-9.107209	-17.028488	40.013091	30.813570	85.980475	-14.811634	0.398663
0.016667	5.483627	-2.411330	92.193778	0.322197	0.999833	0.416017	-3.452710	0.239099	11.413396	0.876317	0.015295	24.258871	-14.825100	0.000000	-3.208872	-0.566696	10.428621	0.647383	0.011299	26.658964	-14.091726	0.000000	-0.188407	-0.035743	0.163587	-0.349890	-0.047538	0.173811	-0.309533	-0.086905	0.173811	-0.215330	-0.086905	0.143139	-0.174954	-0.072887	0.132915	-0.107656	-0.055366	0.122690	-1.345770	-0.404330	0.909823	0.000000	0.000000	26.590163	1.613754	-7.845909	-17.433287	-21.808977	29.190680	48.956699	72.197422	-6.517048	0.328725	-9.386101	-16.963697	39.358192	30.876739	86.102200	-13.380872	1.005984
0.033333	5.463785	-1.800628	93.016437	0.321285	1.000504	0.415644	-4.256059	0.304008	10.606461	0.806595	0.014078	24.626856	-14.616851	0.000000	-3.776243	-0.654063	11.060853	0.641023	0.011188	26.720626	-13.840201	0.000000	-0.236801	-0.023124	-0.032942	-0.439764	-0.030755	-0.035001	-0.389041	-0.056224	-0.035001	-0.270640	-0.056224	-0.028824	-0.219894	-0.047155	-0.026765	-0.135308	-0.035820	-0.024706	-1.691449	-0.261587	-0.183213	0.000000	0.000000	26.351736	2.239001	-6.850640	-17.523138	-21.358047	28.771176	48.284015	72.545135	-5.904056	0.920876	-9.533877	-16.915991	39.133889	30.794951	86.176220	-12.306936	1.522886
0.050000	5.436002	-1.253541	93.692267	0.320634	1.001085	0.415379	-4.961593	0.351608	10.003925	0.747770	0.013051	24.949069	-14.470785	0.000000	-4.298325	-0.724661	11.626664	0.639150	0.011155	26.777936	-13.686263	0.000000	-0.276846	-0.014875	-0.179952	-0.514131	-0.019783	-0.191199	-0.454831	-0.036166	-0.191199	-0.316408	-0.036166	-0.157458	-0.257080	-0.030332	-0.146211	-0.158190	-0.023041	-0.134964	-1.977486	-0.168264	-1.000840	0.000000	0.000000	26.208034	2.523517	-6.264406	-17.550379	-20.952906	28.655638	47.555911	72.700303	-5.396294	1.354005	-9.564834	-16.882715	39.290495	30.586118	86.207602	-11.552513	1.956016
0.066667	5.401702	-0.765681	94.226763	0.320221	1.001583	0.415225	-5.574479	0.382791	9.591416	0.699690	0.012212	25.229138	-14.378810	0.000000	-4.776986	-0.778924	12.121386	0.641163	0.011190	26.831426	-13.618537	0.000000	-0.309280	-0.010403	-0.281985	-0.574363	-0.013836	-0.299609	-0.508116	-0.025293	-0.299609	-0.353476	-0.025293	-0.246737	-0.287197	-0.021213	-0.229113	-0.176722	-0.016114	-0.211488	-2.209154	-0.117678	-1.568314	0.000000	0.000000	26.144581	2.507871	-6.038128	-17.518741	-20.593296	28.810421	46.786618	72.685786	-4.986232	1.643302	-9.493271	-16.861209	39.778324	30.268153	86.201415	-11.080291	2.312023
0.083333	5.362306	-0.332660	94.625420	0.320026	1.002009	0.415187	-6.099886	0.398447	9.354561	0.662204	0.011558	25.470696	-14.332832	0.000000	-5.214095	-0.817283	12.540348	0.646461	0.011283	26.881628	-13.625646	0.000000	-0.334839	-0.009118	-0.343580	-0.621830	-0.012127	-0.365054	-0.550108	-0.022170	-0.365054	-0.382688	-0.022170	-0.300633	-0.310932	-0.018594	-0.279159	-0.191327	-0.014124	-0.257685	-2.391724	-0.103147	-1.910889	0.000000	0.000000	26.146899	2.232631	-6.122724	-17.431955	-20.278955	29.201883	45.990365	72.524445	-4.666340	1.803952	-9.333484	-16.848816	40.547692	29.858966	86.162724	-10.852957	2.597556
